<svg xmlns="http://www.w3.org/2000/svg" xmlns:xlink="http://www.w3.org/1999/xlink" viewBox="0 0 75.83971 75.84031"><defs><style>.cls-1{fill:none;}.cls-2{fill:#e8edfc;}.cls-3{fill:#428dff;}.cls-4{fill:#7facfa;}.cls-5{clip-path:url(#clip-path);}</style><clipPath id="clip-path" transform="translate(-0.00163 -0.02972)"><rect class="cls-1" width="75.89975" height="75.89975"/></clipPath></defs><title>logo-icon</title><g id="Layer_2" data-name="Layer 2"><g id="Layer_1-2" data-name="Layer 1"><path class="cls-2" d="M29.41,72.8495a1.26386,1.26386,0,0,0-1.47925.97325,1.28648,1.28648,0,0,0,2.52778.48009A1.26265,1.26265,0,0,0,29.41,72.8495Z" transform="translate(-0.00163 -0.02972)"/><path class="cls-3" d="M31.508,70.65c.44235,0,1.26359.1263,1.41579.1263a1.26445,1.26445,0,0,0,.0753-2.52778l-1.18829-.10121a1.27293,1.27293,0,0,0-.3028,2.52779Z" transform="translate(-0.00163 -0.02972)"/><path class="cls-4" d="M74.63536,11.406A10.11184,10.11184,0,1,1,64.52361,1.29331,10.11187,10.11187,0,0,1,74.63536,11.406Z" transform="translate(-0.00163 -0.02972)"/><path class="cls-3" d="M64.52361,1.29331a9.44911,9.44911,0,0,0-1.89587.19,10.112,10.112,0,0,1,0,19.84477,9.4351,9.4351,0,0,0,1.89587.18975,10.11224,10.11224,0,0,0,0-20.22447Z" transform="translate(-0.00163 -0.02972)"/><path class="cls-4" d="M71.6342,73.06748c-2.80144-2.26833-3.70966-1.94786-5.11718-13.099a27.80935,27.80935,0,0,0,.62714-24.08332c2.5586-5.1265.62634-12.56043-2.67442-14.36741-1.944,3.21712-.97161,1.60174-3.83747,6.4088L58.547,28.97716a6.40524,6.40524,0,0,0-3.4794,4.90866l-1.63778,11.984a6.40442,6.40442,0,0,1-4.09394,5.1265L24.93964,59.43a8.24687,8.24687,0,0,1-10.33678-4.97238l-.4477-1.17947,1.38131-1.8196A7.7004,7.7004,0,0,0,16.905,45.04975L15.6263,39.19231a.63887.63887,0,0,0-.76778-.48682,7.462,7.462,0,0,0-2.96809.9608,3.75707,3.75707,0,0,0-1.66318,2.79465l-.51132,5.30568c-2.98068-4.8832-2.91728-4.84432-3.32616-5.25478a3.83518,3.83518,0,0,0-3.58264-1.05059l-1.84161.564a.64006.64006,0,0,0-.48672.769l1.47114,5.71594a7.61153,7.61153,0,0,0,4.00493,5.1267l.47311.24331c4.52884,13.612,15.6966,21.46906,27.30028,21.46906h7.67557a28.00784,28.00784,0,0,0,19.43328-7.79267l1.27889,4.0753a5.04305,5.04305,0,0,0,4.7845,3.71737h3.92791a1.28221,1.28221,0,0,0,.80579-2.28177Z" transform="translate(-0.00163 -0.02972)"/><path class="cls-3" d="M70.84378,74.60644H67.0516a1.34017,1.34017,0,0,0,.78349-2.36414c-2.793-2.36313-3.488-1.95933-5.14452-12.71581a27.3546,27.3546,0,0,0,.67065-23.83955,13.48791,13.48791,0,0,0-.3546-11.64118l1.517-2.528c3.26129,1.782,5.14452,9.12584,2.64164,14.16916a27.38038,27.38038,0,0,1-.61884,23.751c1.42823,10.99724,2.32558,10.68119,5.056,12.91822a1.26449,1.26449,0,0,1-.7586,2.25029Z" transform="translate(-0.00163 -0.02972)"/><g class="cls-5"><path class="cls-2" d="M23.86063,73.79684l.96079-2.338a25.27861,25.27861,0,0,0,9.366,1.88324V75.87a28.0291,28.0291,0,0,1-10.32678-2.07319Z" transform="translate(-0.00163 -0.02972)"/><path class="cls-2" d="M64.52361.02972a11.37618,11.37618,0,0,0-2.11072,22.55005l-2.528,4.29737-1.73184.87225a7.58282,7.58282,0,0,0-4.12087,5.78926L52.45255,45.39488a5.055,5.055,0,0,1-3.19783,4.05742L25.04892,57.732a6.9137,6.9137,0,0,1-8.55719-4.18453l-.2024-.50519.94754-1.26439a8.84916,8.84916,0,0,0,1.58044-7.33136l-1.26439-5.77581A1.89577,1.89577,0,0,0,15.22733,37.28l-1.64329.36625A5.05687,5.05687,0,0,0,9.66557,42.0834l-.139,1.47844-.7584-1.26359a5.05508,5.05508,0,0,0-5.5234-2.28784l-1.70675.46745a1.90824,1.90824,0,0,0-1.47844,2.338l1.44089,5.60032A8.84666,8.84666,0,0,0,6.16414,54.382c.39215.2024,3.66608,13.72681,17.69649,19.46588a1.26425,1.26425,0,0,0,.96079-2.33884C16.75677,68.21,11.23336,61.39708,8.38933,53.09248a1.76177,1.76177,0,0,0-1.09954-.9608A6.31929,6.31929,0,0,1,3.99,47.87266L2.72636,42.81589l1.12485-.36624a2.52855,2.52855,0,0,1,2.73018,1.16319l2.75548,4.44877a1.2641,1.2641,0,0,0,2.33884-.5309l.50519-5.24491a2.52907,2.52907,0,0,1,1.94669-2.21274l1.03629-.2275L16.33953,45.016a6.24406,6.24406,0,0,1-1.13729,5.22l-1.3656,1.83285a1.26376,1.26376,0,0,0-.16385,1.26359l.44235,1.16319a9.404,9.404,0,0,0,10.65528,5.96656c.7586-.1522-1.09954.92244,25.28044-8.5831a7.58408,7.58408,0,0,0,4.85357-6.10531l1.58044-11.85622a5.05464,5.05464,0,0,1,2.75528-3.88013l2.06054-1.03689c.46745-.24015.316-.139,3.56408-5.54851,2.14908,2.45188,3.02132,7.9753,1.16319,11.71727a1.261,1.261,0,0,0,0,1.07384A25.95958,25.95958,0,0,1,66.96285,55.204a1.26381,1.26381,0,0,0-2.41413.61885C66.799,71.345,67.5323,70.65,70.84378,73.34205H66.96285a3.7921,3.7921,0,0,1-3.56407-2.76794c-4.24718-14.5113.11385.39135-2.71773-8.97464a1.26761,1.26761,0,1,0-2.42679.7335L59.51785,66.504a26.39013,26.39013,0,0,1-17.74668,6.838H34.18741a1.264,1.264,0,0,0,0,2.528h7.58376a28.95946,28.95946,0,0,0,18.55607-6.71171l.64475,2.12319A6.32054,6.32054,0,0,0,66.96285,75.87h3.88093a2.52809,2.52809,0,0,0,1.57984-4.5c-2.528-2.09809-3.04643-1.33949-4.71482-11.47733a28.60445,28.60445,0,0,0,.8345-24.19314,14.61237,14.61237,0,0,0-1.2644-13.272A11.37579,11.37579,0,0,0,64.52361.02972Zm0,20.22367A8.84757,8.84757,0,1,1,73.37177,11.406a8.8474,8.8474,0,0,1-8.84816,8.84735Z" transform="translate(-0.00163 -0.02972)"/></g><path class="cls-3" d="M64.52361,5.08569A6.32017,6.32017,0,0,0,58.20326,11.406a1.2644,1.2644,0,0,0,2.52879,0,3.79194,3.79194,0,0,1,3.79156-3.79237,1.264,1.264,0,1,0,0-2.528Z" transform="translate(-0.00163 -0.02972)"/><path class="cls-3" d="M41.77117,70.81406a23.943,23.943,0,0,0,13.34811-4.03232A1.27081,1.27081,0,0,0,53.70349,64.671c-5.96576,3.994-11.08518,3.61508-15.7239,3.61508a1.264,1.264,0,1,0,0,2.528Z" transform="translate(-0.00163 -0.02972)"/></g></g></svg>